<?xml version="1.0" encoding="utf-8"?>
<svg width="40" height="40" viewBox="0 0 40 40" fill="none" xmlns="http://www.w3.org/2000/svg">
  <g>
    <path d="M19.2003 0C19.0263 0 18.853 0.0551875 18.705 0.167187C18.705 0.167187 0.305019 14.5281 0.305019 14.5281C-0.0389807 14.8001 -0.102918 15.3027 0.169082 15.6547C0.441082 15.9987 0.943644 16.0626 1.29564 15.7906C1.29564 15.7906 2.40033 14.9281 2.40033 14.9281C2.40033 14.9281 2.40033 35.9594 2.40033 35.9594C2.40033 36.3994 2.76033 36.7594 3.20033 36.7594C3.20033 36.7594 14.4003 36.7594 14.4003 36.7594L14.4003 22.3594L24.0003 22.3594L24.0003 36.7594C24.0003 36.7594 35.2003 36.7594 35.2003 36.7594C35.6403 36.7594 36.0003 36.3994 36.0003 35.9594C36.0003 35.9594 36.0003 14.9281 36.0003 14.9281C36.0003 14.9281 37.105 15.7906 37.105 15.7906C37.257 15.9026 37.4243 15.9594 37.6003 15.9594C37.8403 15.9594 38.0716 15.8547 38.2316 15.6547C38.5036 15.3027 38.4396 14.8001 38.0956 14.5281C38.0956 14.5281 19.6956 0.167187 19.6956 0.167187C19.5476 0.0551875 19.3743 0 19.2003 0C19.2003 0 19.2003 0 19.2003 0ZM27.2004 3.15938L27.2004 4L32.0004 7.74375L32.0004 3.15938L27.2004 3.15938L27.2004 3.15938Z" fill="#FFFFFF" transform="translate(0.8 0.841)" />
  </g>
</svg>